<svg width="22" height="22" viewBox="0 0 23 27" fill="none" xmlns="http://www.w3.org/2000/svg">
  <path
    d="M3.28571 0C3.05571 0 2.85857 0.0328571 2.66143 0.0985714C1.38 0.361429 0.361429 1.38 0.0985714 2.66143C0 2.85857 0 3.05571 0 3.28571V21.3571C0 24.0843 2.20143 26.2857 4.92857 26.2857H23V23H4.92857C4.00857 23 3.28571 22.2771 3.28571 21.3571C3.28571 20.4371 4.00857 19.7143 4.92857 19.7143H23V1.64286C23 0.722857 22.2771 0 21.3571 0H19.7143V9.85714L16.4286 6.57143L13.1429 9.85714V0H3.28571Z"
    fill="current" />
</svg>