<svg width="20" height="20" viewBox="0 0 62 53" fill="none" xmlns="http://www.w3.org/2000/svg">
  <path
    d="M15.45 0C11.2012 0 7.416 1.77675 4.55775 4.55775C1.77675 7.33875 0 11.124 0 15.45C0 19.6987 1.77675 23.484 4.55775 26.3423L30.9 52.6845L57.2422 26.3423C60.0232 23.5613 61.8 19.776 61.8 15.45C61.8 11.2012 60.0232 7.416 57.2422 4.55775C54.4612 1.77675 50.676 0 46.35 0C42.1012 0 38.316 1.77675 35.4578 4.55775C32.6768 7.33875 30.9 11.124 30.9 15.45C30.9 11.2012 29.1233 7.416 26.3423 4.55775C23.5613 1.77675 19.776 0 15.45 0Z"
    fill="current" />
</svg>